<?xml version="1.0" encoding="utf-8"?>
<!-- Generator: Adobe Illustrator 27.3.1, SVG Export Plug-In . SVG Version: 6.00 Build 0)  -->
<svg version="1.1" id="Layer_1" xmlns="http://www.w3.org/2000/svg" xmlns:xlink="http://www.w3.org/1999/xlink" x="0px" y="0px"
	 viewBox="0 0 340.16 127.56" style="enable-background:new 0 0 340.16 127.56;" xml:space="preserve">
<style type="text/css">
	.st0{fill:url(#SVGID_1_);}
	.st1{fill:#F6A321;}
</style>
<g>
	<linearGradient id="SVGID_1_" gradientUnits="userSpaceOnUse" x1="26.5941" y1="4.9873" x2="334.2864" y2="136.8555">
		<stop  offset="0" style="stop-color:#D51883"/>
		<stop  offset="1" style="stop-color:#4C2778"/>
	</linearGradient>
	<path class="st0" d="M26.22,74.79l16.63-3.52c1.7,8.74,7.89,12.75,16.87,12.75c8.13,0,12.14-2.67,12.14-7.28
		c0-5.1-3.28-7.77-17.12-10.08C34.6,63.5,28.41,55.6,28.41,43.59c0-13.72,9.59-21.85,29.5-21.85c19.79,0,27.8,8.86,29.86,21.37
		l-17.36,3.4c-1.7-7.41-4.61-11.17-13.35-11.17c-7.77,0-11.41,2.67-11.41,7.28c0,4.25,2.06,7.28,16.39,9.83
		c22.58,4.01,27.44,12.5,27.44,23.07c0,13.96-9.1,22.46-30.47,22.46C35.69,97.85,27.8,87.41,26.22,74.79z M134.87,97.97
		c-9.59,0-15.78-6.68-18.7-16.75h-0.97v33.51H98.7v-76h16.51V53.3h1.09c3.03-10.08,9.35-16.15,18.57-16.15
		c12.63,0,19.79,10.68,19.79,30.47S147.26,97.97,134.87,97.97z M138.39,67.62c0-10.56-3.52-15.54-11.41-15.54
		c-7.28,0-11.78,5.22-11.78,13.48v4.49c0,8.01,4.61,13.35,11.65,13.35C134.87,83.41,138.39,78.18,138.39,67.62z M164.01,96.27V38.73
		h16.51v57.54H164.01z M192.66,96.27V38.73h15.66v18.7h1.33c3.64-16.02,8.5-19.3,16.03-19.3h1.7v18.94h-3.4
		c-11.53,0-14.81,3.4-14.81,13.6v25.62H192.66z M235.76,96.27V38.73h16.51v57.54H235.76z M289.3,37.27
		c-15.9,0-23.92,7.4-25.86,17.84l15.54,3.52c1.09-5.58,4.25-8.25,9.71-8.25c6.31,0,8.86,3.4,8.86,9.35v4H282.5
		c-6.01,0-10.58,1.12-13.92,3.12c-5.1,3.05-7.32,8.13-7.32,14.37c0,7.09,2.82,11.68,7.32,14.12c0.66,0.36,1.34,0.67,2.06,0.93
		c2.23,0.82,4.76,1.21,7.49,1.21c2.64,0,5.01-0.42,7.12-1.21c5.74-2.15,9.56-7.06,11.7-13.72h1.45v13.72h15.54V59.73
		C313.94,45.28,306.78,37.27,289.3,37.27z M297.55,74.17c0,6.2-4.73,10.69-12.26,10.69c-6.31,0-8.37-2.92-8.37-6.56
		c0-4,3.4-6.43,8.74-6.43h11.89V74.17z"/>
	<path class="st1" d="M251.4,23.68c3.29-3.1,3.97-6.58,1.65-9.04c-2.12-2.24-5.08-2.84-8.97,0.82c-4.64,4.38-4.94,9.9-1.34,13.72
		l1.34,1.42L251.4,23.68z"/>
	<path class="st1" d="M170.95,30.6l1.34-1.42c3.61-3.82,3.3-9.34-1.34-13.72c-3.89-3.67-6.86-3.07-8.97-0.82
		c-2.33,2.47-1.64,5.94,1.65,9.04L170.95,30.6z"/>
</g>
</svg>
